<svg xmlns="http://www.w3.org/2000/svg" viewBox="0 0 100 100" width="100" height="100">
  <!-- Toe pad 1 (top-left) -->
  <ellipse cx="26" cy="24" rx="9.5" ry="12" fill="#2D6A4F" transform="rotate(-18 26 24)"/>
  <!-- Toe pad 2 (top-center-left) -->
  <ellipse cx="44" cy="16" rx="9.5" ry="12" fill="#2D6A4F" transform="rotate(-5 44 16)"/>
  <!-- Toe pad 3 (top-center-right) -->
  <ellipse cx="62" cy="18" rx="9.5" ry="12" fill="#2D6A4F" transform="rotate(8 62 18)"/>
  <!-- Toe pad 4 (top-right) -->
  <ellipse cx="77" cy="30" rx="9" ry="12" fill="#2D6A4F" transform="rotate(22 77 30)"/>
  <!-- Main central pad (heart-like rounded shape) -->
  <path d="
    M50 88
    C30 88 14 74 14 60
    C14 48 22 42 32 42
    C38 42 44 45 50 50
    C56 45 62 42 68 42
    C78 42 86 48 86 60
    C86 74 70 88 50 88Z
  " fill="#2D6A4F"/>
</svg>
